<?xml version="1.0" encoding="iso-8859-1"?>
<!-- Generator: Adobe Illustrator 23.0.2, SVG Export Plug-In . SVG Version: 6.00 Build 0)  -->
<svg version="1.1" id="Layer_1" xmlns="http://www.w3.org/2000/svg" xmlns:xlink="http://www.w3.org/1999/xlink" x="0px" y="0px"
	 viewBox="0 0 800 200" style="enable-background:new 0 0 800 200;" xml:space="preserve">
<g>
	<g>
		<path style="fill:#061B33;" d="M171.936,105.192v62.341h-22.377c-6.549,0-11.859-5.309-11.859-11.859v-46.248
			c0-10.381-3.822-15.39-11.095-15.39c-9.41,0-14.234,6.481-14.234,18.998v54.499H90.887c-6.549,0-11.859-5.309-11.859-11.859
			v-46.248c0-10.069-3.793-15.39-10.961-15.39c-9.28,0-14.368,6.637-14.368,18.998v54.499H19.463V65.199h24.074l4.874,13.619
			c7.182-8.367,17.606-13.619,29.054-13.619c12.117,0,22.32,5.443,28.506,14.634c7.142-8.991,18.147-14.634,30.523-14.634
			C157.785,65.199,171.936,81.787,171.936,105.192z"/>
		<path style="fill:#061B33;" d="M186.505,117.836c0-30.81,23.321-52.953,55.727-52.953c32.301,0,55.727,22.143,55.727,52.953
			c0,30.706-23.426,52.955-55.727,52.955C209.825,170.791,186.505,148.541,186.505,117.836z M242.232,140.038
			c12.483,0,21.436-9.058,21.436-22.198c0-13.063-8.953-22.201-21.436-22.201c-12.484,0-21.436,9.058-21.436,22.199
			c0,13.14,8.952,22.198,21.436,22.198V140.038z"/>
		<path style="fill:#1A3163;" d="M410.107,68.139l-39.958,99.394h-31.013l-40.488-99.394h28.846c5.161,0,9.73,3.338,11.299,8.255
			l16.151,50.612l15.958-50.575c1.557-4.936,6.135-8.292,11.311-8.292H410.107z"/>
		<path style="fill:#061B33;" d="M421.08,68.136h22.374c6.551,0,11.861,5.31,11.861,11.861v87.534H421.08V68.136z M421.342,26.645
			h21.85c6.551,0,11.861,5.31,11.861,11.861v17.192h-33.711V26.645z"/>
		<path style="fill:#061B33;" d="M581.826,26.315v141.218h-25.335l-3.228-7.381c-8.088,6.807-18.403,10.745-29.981,10.745
			c-30.499,0-52.224-22.172-52.224-53.061s21.725-52.955,52.224-52.955c9.177,0,17.575,2.476,24.698,6.901V38.176
			c0-6.551,5.31-11.861,11.861-11.861H581.826z M550.112,117.838c0-12.98-9.426-22.748-22.25-22.748s-22.25,9.768-22.25,22.748
			c0,12.978,9.426,22.744,22.25,22.744S550.112,130.816,550.112,117.838z"/>
		<path style="fill:#061B33;" d="M705.712,116.897c0,2.994-0.261,5.99-0.707,9.064h-73.804c2.24,11.401,9.481,17.295,20.292,17.295
			c7.997,0,14.679-3.502,17.97-9.32h34.068c-6.994,22.684-27.102,36.856-52.038,36.856c-31.013,0-53.989-22.667-53.989-53.032
			c0-30.471,22.791-52.877,53.989-52.877c32.038,0,54.221,22.857,54.221,52.01L705.712,116.897z M631.805,107.002h40.181
			c-3.004-9.934-10.164-15.294-20.496-15.294C641.512,91.708,634.574,97.129,631.805,107.002z"/>
		<path style="fill:#061B33;" d="M786,67.666v31.33h-13.292c-12.12,0-17.197,5.315-17.197,17.993v38.684
			c0,6.551-5.31,11.861-11.861,11.861h-22.375V68.139h22.936l5.342,11.03c7.009-8.108,15.548-11.504,27.378-11.504H786z"/>
	</g>
	<linearGradient id="SVGID_1_" gradientUnits="userSpaceOnUse" x1="298.6467" y1="117.8362" x2="370.1483" y2="117.8362">
		<stop  offset="0" style="stop-color:#40E3EC"/>
		<stop  offset="1" style="stop-color:#2A8BFF"/>
	</linearGradient>
	<path style="fill:url(#SVGID_1_);" d="M370.148,167.533h-31.013l-40.488-99.394h28.846c5.161,0,9.73,3.338,11.299,8.255
		l16.151,50.612"/>
</g>
<g>
</g>
<g>
</g>
<g>
</g>
<g>
</g>
<g>
</g>
<g>
</g>
<g>
</g>
<g>
</g>
<g>
</g>
<g>
</g>
<g>
</g>
<g>
</g>
<g>
</g>
<g>
</g>
<g>
</g>
</svg>
